<?xml version="1.0" standalone="no"?><!DOCTYPE svg PUBLIC "-//W3C//DTD SVG 1.1//EN" "http://www.w3.org/Graphics/SVG/1.1/DTD/svg11.dtd"><svg t="1664350591071" class="icon" viewBox="0 0 1024 1024" version="1.1" xmlns="http://www.w3.org/2000/svg" p-id="3038" xmlns:xlink="http://www.w3.org/1999/xlink" width="128" height="128"><path d="M922.7264 347.8528c-0.5632-18.0736-9.472-32.1536-25.4976-39.424-11.2128-5.0688-24.1664-6.1952-39.5776-9.7792 0-24.32 0.4096-49.6128-0.1024-74.9056-0.768-38.3488-22.272-67.8912-58.3168-80.8448-9.5232-3.4304-19.3024-6.3488-29.0816-9.0624-82.176-22.528-166.4-27.2896-250.9824-27.3408-94.7712-0.0512-189.184 4.4032-280.576 33.3312-45.8752 14.4896-67.2768 43.6736-67.5328 91.8016-0.1536 22.7328 0 45.5168 0 68.7616-5.6832 0.6656-9.3696 1.3312-13.0048 1.536-34.5088 2.0992-50.7904 18.6368-51.712 52.7872-0.256 8.9088-0.1024 17.7664-0.0512 26.6752 0.0512 50.8416 10.24 62.3616 60.3136 68.4032 1.024 0.1024 1.9456 1.4336 4.5056 3.4304v21.4016c0 99.072 0.0512 198.1952-0.0512 297.2672 0 18.2784 0.768 37.376 17.3056 47.9232 14.4384 9.1648 16.7936 20.5312 15.5648 35.1744-0.3072 3.7376 0.3584 7.6288 0.8704 11.3664 4.9664 34.5088 32.8192 57.6 67.7376 56.2176 33.1264-1.28 58.2144-27.0336 60.2112-61.7472 0.512-8.5504 0.9728-17.152 1.4336-25.4464h360.8064c0 9.1136-0.5632 16.6912 0.1024 24.2176 3.0208 33.9968 28.0576 60.8256 58.1632 62.9248 40.3456 2.7648 69.1712-23.552 71.6288-64.1024 0.6656-10.5984 1.1264-25.8048 7.7312-30.5664 19.456-14.1312 25.2928-31.6928 25.1904-54.1184-0.3584-101.0176-0.1536-201.984-0.1536-303.0016v-20.736c5.888-0.512 9.6256-0.8192 13.4144-1.1264 34.3552-2.4576 51.5072-20.6336 51.8144-55.1936 0.2048-15.3088 0.3584-30.5664-0.1536-45.824zM374.4768 171.8784h279.7056c16.9472 0 30.72 13.7728 30.72 30.72s-13.7728 30.72-30.72 30.72H374.4768c-16.9472 0-30.72-13.7728-30.72-30.72s13.7728-30.72 30.72-30.72z m-98.2016 596.992c-22.1696-0.4096-40.4992-19.5072-40.3968-42.0352 0.1024-23.1424 17.7664-40.7552 41.0112-40.8064 24.5248-0.1024 41.5232 17.5104 40.96 42.3424-0.4608 22.272-19.5584 40.9088-41.5744 40.4992z m475.3408-0.2048c-22.1696-0.3072-40.6016-19.2512-40.5504-41.6768 0.0512-23.2448 17.4592-40.7552 40.7552-40.96 22.6304-0.2048 41.472 17.8688 41.9328 40.192 0.4608 22.6304-19.5072 42.8032-42.1376 42.4448z m12.9024-172.4928c-83.7632 0.0512-167.5776 0-251.3408 0-83.1488 0-166.2976 0.0512-249.4464-0.0512-24.2688 0-28.0064-3.5328-28.0576-27.2384-0.1536-79.9744-0.1024-159.9488 0-239.9232 0.0512-24.2688 3.7888-28.0064 27.2896-28.0576 167.5776-0.0512 335.1552-0.0512 502.7328 0 24.576 0 28.16 3.7376 28.16 29.0816 0.0512 78.6944 0.0512 157.44 0 236.1344 0 26.5728-3.328 30.0032-29.3376 30.0544z" fill="#958DFF" p-id="3039"></path></svg>