<?xml version="1.0" standalone="no"?><!DOCTYPE svg PUBLIC "-//W3C//DTD SVG 1.1//EN" "http://www.w3.org/Graphics/SVG/1.1/DTD/svg11.dtd"><svg t="1664350522483" class="icon" viewBox="0 0 1024 1024" version="1.1" xmlns="http://www.w3.org/2000/svg" p-id="2559" xmlns:xlink="http://www.w3.org/1999/xlink" width="128" height="128"><path d="M718.9504 101.5808H327.5264c-111.9232 0-202.5984 90.7264-202.5984 202.5984v391.424c0 111.9232 90.7264 202.5984 202.5984 202.5984h391.424c111.9232 0 202.5984-90.7264 202.5984-202.5984V304.2304c0-111.9232-90.6752-202.6496-202.5984-202.6496zM457.9328 669.5424a30.72 30.72 0 0 1-21.7088 52.4288c-7.8336 0-15.7184-3.0208-21.7088-9.0112l-34.304-34.304-34.304 34.304a30.67392 30.67392 0 0 1-43.4176 0 30.72 30.72 0 0 1 0-43.4176l34.304-34.304-34.304-34.304a30.72 30.72 0 0 1 0-43.4176 30.72 30.72 0 0 1 43.4176 0l34.304 34.304 34.304-34.304a30.72 30.72 0 0 1 43.4176 0 30.72 30.72 0 0 1 0 43.4176l-34.304 34.304 34.304 34.304z m1.4848-299.264h-48.5376v48.5376c0 16.9472-13.7728 30.72-30.72 30.72s-30.72-13.7728-30.72-30.72v-48.5376h-48.5376c-16.9472 0-30.72-13.7728-30.72-30.72s13.7728-30.72 30.72-30.72h48.5376v-48.5376c0-16.9472 13.7728-30.72 30.72-30.72s30.72 13.7728 30.72 30.72v48.5376h48.5376c16.9472 0 30.72 13.7728 30.72 30.72s-13.7728 30.72-30.72 30.72z m284.7744 342.9376h-146.5856c-16.9472 0-30.72-13.7728-30.72-30.72s13.7728-30.72 30.72-30.72h146.5856c16.9472 0 30.72 13.7728 30.72 30.72s-13.7728 30.72-30.72 30.72z m0-118.4256h-146.5856c-16.9472 0-30.72-13.7728-30.72-30.72s13.7728-30.72 30.72-30.72h146.5856c16.9472 0 30.72 13.7728 30.72 30.72s-13.7728 30.72-30.72 30.72z m0-230.2976h-146.5856c-16.9472 0-30.72-13.7728-30.72-30.72s13.7728-30.72 30.72-30.72h146.5856c16.9472 0 30.72 13.7728 30.72 30.72s-13.7728 30.72-30.72 30.72z" fill="#FF279E" p-id="2560"></path></svg>