<?xml version="1.0" standalone="no"?><!DOCTYPE svg PUBLIC "-//W3C//DTD SVG 1.1//EN" "http://www.w3.org/Graphics/SVG/1.1/DTD/svg11.dtd"><svg t="1664350446294" class="icon" viewBox="0 0 1024 1024" version="1.1" xmlns="http://www.w3.org/2000/svg" p-id="1758" xmlns:xlink="http://www.w3.org/1999/xlink" width="128" height="128"><path d="M826.1632 459.8272c0.1024-3.1232 0.256-6.2464 0.256-9.4208 0-140.1856-113.664-253.8496-253.8496-253.8496-109.8752 0-203.3664 69.7856-238.7456 167.424-3.9424-0.3584-7.936-0.5632-11.9296-0.5632-61.0816 0-112.4352 41.472-127.5392 97.792-83.3536 16.9472-146.0736 90.6752-146.0736 178.9952v10.2912c0 100.9152 81.7664 182.6816 182.6816 182.6816H797.184c100.9152 0 182.6816-81.7664 182.6816-182.6816v-10.2912c-0.0512-91.0336-66.6112-166.4512-153.7024-180.3776z m-126.7712 254.976H328.6528c-16.9472 0-30.72-13.7728-30.72-30.72s13.7728-30.72 30.72-30.72h370.7392c16.9472 0 30.72 13.7728 30.72 30.72s-13.7728 30.72-30.72 30.72z" fill="#5097FF" p-id="1759"></path></svg>