<?xml version="1.0" standalone="no"?><!DOCTYPE svg PUBLIC "-//W3C//DTD SVG 1.1//EN" "http://www.w3.org/Graphics/SVG/1.1/DTD/svg11.dtd"><svg t="1664350504069" class="icon" viewBox="0 0 1024 1024" version="1.1" xmlns="http://www.w3.org/2000/svg" p-id="2397" xmlns:xlink="http://www.w3.org/1999/xlink" width="128" height="128"><path d="M503.296 428.6464l-11.7248 15.5136H216.32l-12.6464-15.5136h-16.9472c18.2784 93.184 86.5792 190.0032 168.0384 190.0032 80.3328 0 147.8144-102.4 167.2192-190.0032H503.296z" fill="#FFA937" p-id="2398"></path><path d="M666.88 845.6704l-3.4816-38.3488c-8.9088-98.7136-71.2192-180.736-156.8256-218.624-43.008 48.384-95.1808 81.152-151.552 81.152-57.856 0-111.4112-31.7952-155.0336-80.0256-85.3504 38.912-146.8928 121.8048-154.5728 220.9792l-2.7136 35.2256a27.97056 27.97056 0 0 0 27.904 30.1056h568.4224c16.4352 0 29.3376-14.08 27.8528-30.464zM520.4992 308.5312c-10.6496-49.152-32.6144-91.5968-61.696-121.7536l-18.3808 101.4272a22.4512 22.4512 0 0 1-26.0608 18.0736 22.35392 22.35392 0 0 1-18.0224-26.0608l22.5792-124.2624c-19.8144-10.8544-41.4208-16.8448-64.0512-16.8448-22.528 0-44.0832 5.9392-63.7952 16.7424l22.5792 124.416a22.45632 22.45632 0 0 1-18.0224 26.0608 22.40512 22.40512 0 0 1-26.0608-18.0736l-18.432-101.632c-29.2352 30.1568-51.2512 72.704-61.952 121.9584-16.9984 0-30.8224 22.9888-30.8224 39.9872v36.608c0 5.5296 4.4544 9.984 9.984 9.984h14.4384c0 0.1024 0.0512 0.256 0.0512 0.3584h34.2016l12.6464 15.5136h247.9616l11.7248-15.5136h37.2736c0-0.1024 0.0512-0.2048 0.0512-0.3584h14.6432c5.5296 0 9.984-4.4544 9.984-9.984v-36.608c-0.0512-17.0496-13.824-40.0384-30.8224-40.0384zM851.4048 408.4736l-9.472 12.9024h-225.28l-10.24-12.9024h-11.6224c16.2816 73.8816 70.6048 148.8384 135.1168 148.8384 63.5392 0 117.1456-79.0528 134.3488-148.8384h-12.8512zM864.256 304.896c-8.2432-38.0416-24.832-71.1168-46.848-95.2832l-13.9264 76.6976a22.40512 22.40512 0 0 1-26.0608 18.0224 22.39488 22.39488 0 0 1-18.0224-26.0608l18.0224-99.3792c-14.848-7.3216-30.8224-11.3664-47.5136-11.3664-16.5888 0-32.512 3.9936-47.3088 11.264l18.0736 99.4816a22.43072 22.43072 0 0 1-22.0672 26.4192c-10.5984 0-20.0704-7.5776-22.016-18.3808l-13.9776-76.9024c-22.1184 24.2176-38.7584 57.344-47.0528 95.488-13.7728 0-24.9856 18.6368-24.9856 32.4096v29.696c0 4.4544 3.6352 8.0896 8.0896 8.0896h11.7248v0.2048h29.4912l10.24 12.9024h197.5296l9.472-12.9024h32.0512v-0.2048h11.8784c4.4544 0 8.0896-3.6352 8.0896-8.0896v-29.696c0.0512-13.7728-11.1104-32.4096-24.8832-32.4096z" fill="#FFA937" p-id="2399"></path><path d="M980.1216 710.2464c-6.9632-76.8512-53.8112-141.2096-119.04-173.4144-37.2736 41.4208-82.3296 69.3248-130.9184 69.3248-49.8688 0-96.0512-27.0336-133.888-68.3008a214.79424 214.79424 0 0 0-33.2288 20.9408c76.5952 43.8272 133.888 118.1184 154.6752 207.2576h242.6368c13.312 0 23.808-11.4176 22.5792-24.7296l-2.816-31.0784z" fill="#FFA937" p-id="2400"></path></svg>