<?xml version="1.0" standalone="no"?><!DOCTYPE svg PUBLIC "-//W3C//DTD SVG 1.1//EN" "http://www.w3.org/Graphics/SVG/1.1/DTD/svg11.dtd"><svg t="1664350474928" class="icon" viewBox="0 0 1024 1024" version="1.1" xmlns="http://www.w3.org/2000/svg" p-id="2076" xmlns:xlink="http://www.w3.org/1999/xlink" width="128" height="128"><path d="M568.3712 693.1968c0-119.5008 96.8704-216.32 216.32-216.32 50.9952 0 97.792 17.664 134.7584 47.1552V307.8144c0-79.5648-64.512-144.0768-144.0768-144.0768H238.1312c-79.5648 0-144.0768 64.512-144.0768 144.0768v400.9472c0 79.5648 64.512 144.0768 144.0768 144.0768h400.4864c-43.1616-39.6288-70.2464-96.4608-70.2464-159.6416z m40.0896-320.9216h182.9888c15.872 0 28.7744 12.9024 28.7744 28.7744s-12.9024 28.7744-28.7744 28.7744h-182.9888c-15.872 0-28.7744-12.9024-28.7744-28.7744 0-15.9232 12.8512-28.7744 28.7744-28.7744z m-101.376 329.1136c-15.872 0-28.7744-12.9024-28.7744-28.7744 0-59.5968-45.9776-108.5952-104.2944-113.5104-3.2256 0.256-6.4512 0.4096-9.6768 0.4096-3.2768 0-6.5024-0.1536-9.6768-0.4096-58.3168 4.9152-104.2944 53.9648-104.2944 113.5104 0 15.872-12.9024 28.7744-28.7744 28.7744s-28.7744-12.9024-28.7744-28.7744c0-62.8224 33.9456-117.8112 84.4288-147.6608-24.7296-23.2448-40.192-56.1664-40.192-92.672 0-70.144 57.088-127.232 127.232-127.232S491.52 362.1376 491.52 432.2816c0 36.5056-15.4624 69.4272-40.192 92.672 50.4832 29.8496 84.4288 84.8896 84.4288 147.6608 0.1024 15.872-12.8 28.7744-28.672 28.7744z" fill="#FFA937" p-id="2077"></path><path d="M364.3392 362.5984c-38.4512 0-69.6832 31.2832-69.6832 69.6832 0 35.4304 26.624 64.7168 60.8768 69.0688 2.9184-0.1536 5.888-0.2048 8.8064-0.2048 2.9696 0 5.888 0.0512 8.8064 0.2048 34.2528-4.352 60.8768-33.6384 60.8768-69.0688 0.0512-38.4-31.232-69.6832-69.6832-69.6832zM784.6912 535.2448c-87.2448 0-158.0032 70.7072-158.0032 158.0032s70.7072 158.0032 158.0032 158.0032 158.0032-70.7072 158.0032-158.0032-70.7584-158.0032-158.0032-158.0032z m80.64 206.8992h-88.4736c-15.872 0-28.7744-12.9024-28.7744-28.7744v-89.3952c0-15.872 12.9024-28.7744 28.7744-28.7744s28.7744 12.9024 28.7744 28.7744v60.6208h59.6992c15.872 0 28.7744 12.9024 28.7744 28.7744 0 15.9232-12.9024 28.7744-28.7744 28.7744z" fill="#FFA937" p-id="2078"></path></svg>