<?xml version="1.0" standalone="no"?><!DOCTYPE svg PUBLIC "-//W3C//DTD SVG 1.1//EN" "http://www.w3.org/Graphics/SVG/1.1/DTD/svg11.dtd"><svg t="1664350604457" class="icon" viewBox="0 0 1024 1024" version="1.1" xmlns="http://www.w3.org/2000/svg" p-id="3196" xmlns:xlink="http://www.w3.org/1999/xlink" width="128" height="128"><path d="M516.8128 427.4688c25.5488 0 46.2848-20.7872 46.2848-46.2848s-20.7872-46.2848-46.2848-46.2848c-25.5488 0-46.2848 20.7872-46.2848 46.2848s20.736 46.2848 46.2848 46.2848z" fill="#FFA937" p-id="3197"></path><path d="M938.8544 830.2592h-58.5216V381.1328c0-33.6384-27.2384-60.8768-60.8768-60.8768h-111.7696V272.384c0-10.3936-4.352-20.2752-12.032-27.2896l-152.5248-139.1616a36.94592 36.94592 0 0 0-49.5616-0.2048L338.176 245.0944a36.87424 36.87424 0 0 0-12.288 27.4944v47.7184H214.1184c-33.6384 0-60.8768 27.2384-60.8768 60.8768v449.1264H91.904c-16.5888 0-30.0544 13.4656-30.0544 30.0544s13.4656 30.0544 30.0544 30.0544h846.9504c16.5888 0 30.0544-13.4656 30.0544-30.0544a30.01344 30.01344 0 0 0-30.0544-30.1056z m-422.0416-555.52c58.6752 0 106.4448 47.7696 106.4448 106.4448s-47.7696 106.4448-106.4448 106.4448c-58.6752 0-106.4448-47.7696-106.4448-106.4448s47.7184-106.4448 106.4448-106.4448z m80.8448 525.4656v-142.2336c0-10.7008-8.6528-19.3536-19.3536-19.3536H455.2704c-10.7008 0-19.3536 8.6528-19.3536 19.3536v142.2336c0 16.5888-13.4656 30.0544-30.0544 30.0544s-30.0544-13.4656-30.0544-30.0544v-142.2336c0-43.8784 35.584-79.4624 79.4624-79.4624h123.0336c43.8784 0 79.4624 35.584 79.4624 79.4624v142.2336c0 16.5888-13.4656 30.0544-30.0544 30.0544s-30.0544-13.4144-30.0544-30.0544z" fill="#FFA937" p-id="3198"></path></svg>