<?xml version="1.0" standalone="no"?><!DOCTYPE svg PUBLIC "-//W3C//DTD SVG 1.1//EN" "http://www.w3.org/Graphics/SVG/1.1/DTD/svg11.dtd"><svg t="1664350460886" class="icon" viewBox="0 0 1024 1024" version="1.1" xmlns="http://www.w3.org/2000/svg" p-id="1916" xmlns:xlink="http://www.w3.org/1999/xlink" width="128" height="128"><path d="M216.4224 315.4944c-7.5776 0-15.1552-2.7648-21.0944-8.3456l-50.9952-48.0768a30.73024 30.73024 0 0 1-1.28-43.4176 30.73024 30.73024 0 0 1 43.4176-1.28l50.9952 48.0768a30.73024 30.73024 0 0 1 1.28 43.4176 30.6176 30.6176 0 0 1-22.3232 9.6256zM786.4832 315.4944c-8.1408 0-16.3328-3.2256-22.3744-9.6256a30.73024 30.73024 0 0 1 1.28-43.4176l50.9952-48.0768a30.73024 30.73024 0 0 1 43.4176 1.28 30.73024 30.73024 0 0 1-1.28 43.4176l-50.9952 48.0768a30.47936 30.47936 0 0 1-21.0432 8.3456zM501.4528 226.3552c-16.9472 0-30.72-13.7728-30.72-30.72V117.76c0-16.9472 13.7728-30.72 30.72-30.72s30.72 13.7728 30.72 30.72v77.8752c0 16.9472-13.7728 30.72-30.72 30.72zM848.2304 845.2608h-49.5616v-301.1584c0-161.8944-131.7376-293.632-293.632-293.632s-293.632 131.7376-293.632 293.632v301.1584H172.032c-16.9472 0-30.72 13.7728-30.72 30.72s13.7728 30.72 30.72 30.72h676.1984c16.9472 0 30.72-13.7728 30.72-30.72s-13.7728-30.72-30.72-30.72z m-224.7168-227.8912l-119.808 127.3856a30.49984 30.49984 0 0 1-22.3744 9.6768c-7.5264 0-15.104-2.7648-21.0432-8.3456-12.3392-11.6224-12.9536-31.0784-1.3312-43.4176l71.1168-75.6224H413.0816c-12.4928 0-23.7056-7.5264-28.416-19.0976s-1.9968-24.832 6.912-33.536L508.4672 459.776a30.78144 30.78144 0 0 1 43.4688 0.4096 30.78144 30.78144 0 0 1-0.4096 43.4688l-63.1808 61.952h112.8448c12.2368 0 23.3472 7.2704 28.2112 18.5344 4.8128 11.2128 2.5088 24.2688-5.888 33.2288z" fill="#FF5757" p-id="1917"></path></svg>